<svg width="512" height="512" viewBox="0 0 512 512" version="1.1" xmlns="http://www.w3.org/2000/svg" xmlns:xlink="http://www.w3.org/1999/xlink">
<title>Group</title>
<desc>Created using Figma</desc>
<g id="Canvas" transform="matrix(7.87692 0 0 7.87692 559.262 669.538)">
<g id="Group">
<g id="Exclude">
<mask id="mask0_outline_ins">
<use xlink:href="#path0_fill" fill="white" transform="translate(-71 -85)"/>
</mask>
<g mask="url(#mask0_outline_ins)">
<use xlink:href="#path1_stroke_2x" transform="translate(-71 -85)" fill="#333333"/>
</g>
</g>
<g id="Exclude">
<use xlink:href="#path2_fill" transform="translate(-68 -81)" fill="#333333"/>
</g>
<g id="Exclude">
<use xlink:href="#path3_fill" transform="translate(-68 -34)" fill="#333333"/>
</g>
<g id="Mg">
<use xlink:href="#path4_fill" transform="translate(-70 -81)" fill="url(#paint3_linear)"/>
<use xlink:href="#path5_fill" transform="translate(-70 -81)" fill="url(#paint4_linear)"/>
</g>
</g>
</g>
<defs>
<linearGradient id="paint3_linear" x1="0" y1="0" x2="1" y2="0" gradientUnits="userSpaceOnUse" gradientTransform="matrix(3.79641e-15 56 -62 3.42901e-15 62 -3.42901e-15)">
<stop offset="0" stop-color="#333333"/>
<stop offset="1" stop-color="#4F4F4F"/>
</linearGradient>
<linearGradient id="paint4_linear" x1="0" y1="0" x2="1" y2="0" gradientUnits="userSpaceOnUse" gradientTransform="matrix(3.79641e-15 56 -62 3.42901e-15 62 -3.42901e-15)">
<stop offset="0" stop-color="#CF2323"/>
<stop offset="1" stop-color="#FC4949"/>
</linearGradient>
<path id="path0_fill" fill-rule="evenodd" d="M 0 8C 0 3.58172 3.58172 0 8 0L 57 0C 61.4183 0 65 3.58172 65 8L 65 57C 65 61.4183 61.4183 65 57 65L 8 65C 3.58172 65 0 61.4183 0 57L 0 8ZM 15.6956 55.5C 15.6956 55.2239 15.9194 55 16.1956 55L 23.8367 55C 24.1129 55 24.3367 55.2239 24.3367 55.5L 24.3367 60.5C 24.3367 60.7761 24.1129 61 23.8367 61L 16.1956 61C 15.9194 61 15.6956 60.7761 15.6956 60.5L 15.6956 55.5ZM 28.8912 55C 28.615 55 28.3912 55.2239 28.3912 55.5L 28.3912 60.5C 28.3912 60.7761 28.615 61 28.8912 61L 36.5323 61C 36.8084 61 37.0323 60.7761 37.0323 60.5L 37.0323 55.5C 37.0323 55.2239 36.8084 55 36.5323 55L 28.8912 55ZM 41.0867 55.5C 41.0867 55.2239 41.3106 55 41.5867 55L 49.2279 55C 49.504 55 49.7279 55.2239 49.7279 55.5L 49.7279 60.5C 49.7279 60.7761 49.504 61 49.2279 61L 41.5867 61C 41.3106 61 41.0867 60.7761 41.0867 60.5L 41.0867 55.5ZM 4.5 55C 4.22386 55 4 55.2239 4 55.5L 4 57C 4 59.2091 5.79086 61 8 61L 11.5 61C 11.7761 61 12 60.7761 12 60.5L 12 55.5C 12 55.2239 11.7761 55 11.5 55L 4.5 55ZM 61 55.5C 61 55.2239 60.7761 55 60.5 55L 53.5 55C 53.2239 55 53 55.2239 53 55.5L 53 60.5C 53 60.7761 53.2239 61 53.5 61L 57 61C 59.2091 61 61 59.2091 61 57L 61 55.5ZM 16.1956 10C 15.9194 10 15.6956 9.77615 15.6956 9.5L 15.6956 4.5C 15.6956 4.22385 15.9194 4 16.1956 4L 23.8367 4C 24.1129 4 24.3367 4.22385 24.3367 4.5L 24.3367 9.5C 24.3367 9.77615 24.1129 10 23.8367 10L 16.1956 10ZM 28.3912 9.5C 28.3912 9.77615 28.615 10 28.8912 10L 36.5323 10C 36.8084 10 37.0323 9.77615 37.0323 9.5L 37.0323 4.5C 37.0323 4.22385 36.8084 4 36.5323 4L 28.8912 4C 28.615 4 28.3912 4.22385 28.3912 4.5L 28.3912 9.5ZM 41.5867 10C 41.3106 10 41.0867 9.77615 41.0867 9.5L 41.0867 4.5C 41.0867 4.22385 41.3106 4 41.5867 4L 49.2279 4C 49.504 4 49.7279 4.22385 49.7279 4.5L 49.7279 9.5C 49.7279 9.77615 49.504 10 49.2279 10L 41.5867 10ZM 4 9.5C 4 9.77615 4.22386 10 4.5 10L 11.5 10C 11.7761 10 12 9.77615 12 9.5L 12 4.5C 12 4.22385 11.7761 4 11.5 4L 8 4C 5.79086 4 4 5.79086 4 8L 4 9.5ZM 60.5 10C 60.7761 10 61 9.77615 61 9.5L 61 8C 61 5.79086 59.2091 4 57 4L 53.5 4C 53.2239 4 53 4.22385 53 4.5L 53 9.5C 53 9.77615 53.2239 10 53.5 10L 60.5 10Z"/>
<path id="path1_stroke_2x" d="M 8 -4C 1.37258 -4 -4 1.37258 -4 8L 4 8C 4 5.79086 5.79086 4 8 4L 8 -4ZM 57 -4L 8 -4L 8 4L 57 4L 57 -4ZM 69 8C 69 1.37258 63.6274 -4 57 -4L 57 4C 59.2091 4 61 5.79086 61 8L 69 8ZM 69 57L 69 8L 61 8L 61 57L 69 57ZM 57 69C 63.6274 69 69 63.6274 69 57L 61 57C 61 59.2091 59.2091 61 57 61L 57 69ZM 8 69L 57 69L 57 61L 8 61L 8 69ZM -4 57C -4 63.6274 1.37258 69 8 69L 8 61C 5.79086 61 4 59.2091 4 57L -4 57ZM -4 8L -4 57L 4 57L 4 8L -4 8ZM 16.1956 51C 13.7103 51 11.6956 53.0147 11.6956 55.5L 19.6956 55.5C 19.6956 57.433 18.1286 59 16.1956 59L 16.1956 51ZM 23.8367 51L 16.1956 51L 16.1956 59L 23.8367 59L 23.8367 51ZM 28.3367 55.5C 28.3367 53.0147 26.322 51 23.8367 51L 23.8367 59C 21.9037 59 20.3367 57.433 20.3367 55.5L 28.3367 55.5ZM 28.3367 60.5L 28.3367 55.5L 20.3367 55.5L 20.3367 60.5L 28.3367 60.5ZM 23.8367 65C 26.322 65 28.3367 62.9853 28.3367 60.5L 20.3367 60.5C 20.3367 58.567 21.9037 57 23.8367 57L 23.8367 65ZM 16.1956 65L 23.8367 65L 23.8367 57L 16.1956 57L 16.1956 65ZM 11.6956 60.5C 11.6956 62.9853 13.7103 65 16.1956 65L 16.1956 57C 18.1286 57 19.6956 58.567 19.6956 60.5L 11.6956 60.5ZM 11.6956 55.5L 11.6956 60.5L 19.6956 60.5L 19.6956 55.5L 11.6956 55.5ZM 32.3912 55.5C 32.3912 57.433 30.8241 59 28.8912 59L 28.8912 51C 26.4059 51 24.3912 53.0147 24.3912 55.5L 32.3912 55.5ZM 32.3912 60.5L 32.3912 55.5L 24.3912 55.5L 24.3912 60.5L 32.3912 60.5ZM 28.8912 57C 30.8241 57 32.3912 58.567 32.3912 60.5L 24.3912 60.5C 24.3912 62.9853 26.4059 65 28.8912 65L 28.8912 57ZM 36.5323 57L 28.8912 57L 28.8912 65L 36.5323 65L 36.5323 57ZM 33.0323 60.5C 33.0323 58.567 34.5993 57 36.5323 57L 36.5323 65C 39.0176 65 41.0323 62.9853 41.0323 60.5L 33.0323 60.5ZM 33.0323 55.5L 33.0323 60.5L 41.0323 60.5L 41.0323 55.5L 33.0323 55.5ZM 36.5323 59C 34.5993 59 33.0323 57.433 33.0323 55.5L 41.0323 55.5C 41.0323 53.0147 39.0176 51 36.5323 51L 36.5323 59ZM 28.8912 59L 36.5323 59L 36.5323 51L 28.8912 51L 28.8912 59ZM 41.5867 51C 39.1014 51 37.0867 53.0147 37.0867 55.5L 45.0867 55.5C 45.0867 57.433 43.5197 59 41.5867 59L 41.5867 51ZM 49.2279 51L 41.5867 51L 41.5867 59L 49.2279 59L 49.2279 51ZM 53.7279 55.5C 53.7279 53.0147 51.7132 51 49.2279 51L 49.2279 59C 47.2949 59 45.7279 57.433 45.7279 55.5L 53.7279 55.5ZM 53.7279 60.5L 53.7279 55.5L 45.7279 55.5L 45.7279 60.5L 53.7279 60.5ZM 49.2279 65C 51.7132 65 53.7279 62.9853 53.7279 60.5L 45.7279 60.5C 45.7279 58.567 47.2949 57 49.2279 57L 49.2279 65ZM 41.5867 65L 49.2279 65L 49.2279 57L 41.5867 57L 41.5867 65ZM 37.0867 60.5C 37.0867 62.9853 39.1014 65 41.5867 65L 41.5867 57C 43.5197 57 45.0867 58.567 45.0867 60.5L 37.0867 60.5ZM 37.0867 55.5L 37.0867 60.5L 45.0867 60.5L 45.0867 55.5L 37.0867 55.5ZM 8 55.5C 8 57.433 6.433 59 4.5 59L 4.5 51C 2.01472 51 0 53.0147 0 55.5L 8 55.5ZM 8 57L 8 55.5L 0 55.5L 0 57L 8 57ZM 8 57L 0 57C 0 61.4183 3.58172 65 8 65L 8 57ZM 11.5 57L 8 57L 8 65L 11.5 65L 11.5 57ZM 8 60.5C 8 58.567 9.567 57 11.5 57L 11.5 65C 13.9853 65 16 62.9853 16 60.5L 8 60.5ZM 8 55.5L 8 60.5L 16 60.5L 16 55.5L 8 55.5ZM 11.5 59C 9.567 59 8 57.433 8 55.5L 16 55.5C 16 53.0147 13.9853 51 11.5 51L 11.5 59ZM 4.5 59L 11.5 59L 11.5 51L 4.5 51L 4.5 59ZM 60.5 59C 58.567 59 57 57.433 57 55.5L 65 55.5C 65 53.0147 62.9853 51 60.5 51L 60.5 59ZM 53.5 59L 60.5 59L 60.5 51L 53.5 51L 53.5 59ZM 57 55.5C 57 57.433 55.433 59 53.5 59L 53.5 51C 51.0147 51 49 53.0147 49 55.5L 57 55.5ZM 57 60.5L 57 55.5L 49 55.5L 49 60.5L 57 60.5ZM 53.5 57C 55.433 57 57 58.567 57 60.5L 49 60.5C 49 62.9853 51.0147 65 53.5 65L 53.5 57ZM 57 57L 53.5 57L 53.5 65L 57 65L 57 57ZM 57 57L 57 65C 61.4183 65 65 61.4183 65 57L 57 57ZM 57 55.5L 57 57L 65 57L 65 55.5L 57 55.5ZM 11.6956 9.5C 11.6956 11.9853 13.7103 14 16.1956 14L 16.1956 6C 18.1286 6 19.6956 7.56699 19.6956 9.5L 11.6956 9.5ZM 11.6956 4.5L 11.6956 9.5L 19.6956 9.5L 19.6956 4.5L 11.6956 4.5ZM 16.1956 0C 13.7103 0 11.6956 2.0147 11.6956 4.5L 19.6956 4.5C 19.6956 6.43301 18.1286 8 16.1956 8L 16.1956 0ZM 23.8367 0L 16.1956 0L 16.1956 8L 23.8367 8L 23.8367 0ZM 28.3367 4.5C 28.3367 2.0147 26.322 0 23.8367 0L 23.8367 8C 21.9037 8 20.3367 6.43301 20.3367 4.5L 28.3367 4.5ZM 28.3367 9.5L 28.3367 4.5L 20.3367 4.5L 20.3367 9.5L 28.3367 9.5ZM 23.8367 14C 26.322 14 28.3367 11.9853 28.3367 9.5L 20.3367 9.5C 20.3367 7.56699 21.9037 6 23.8367 6L 23.8367 14ZM 16.1956 14L 23.8367 14L 23.8367 6L 16.1956 6L 16.1956 14ZM 28.8912 6C 30.8241 6 32.3912 7.56699 32.3912 9.5L 24.3912 9.5C 24.3912 11.9853 26.4059 14 28.8912 14L 28.8912 6ZM 36.5323 6L 28.8912 6L 28.8912 14L 36.5323 14L 36.5323 6ZM 33.0323 9.5C 33.0323 7.56699 34.5993 6 36.5323 6L 36.5323 14C 39.0176 14 41.0323 11.9853 41.0323 9.5L 33.0323 9.5ZM 33.0323 4.5L 33.0323 9.5L 41.0323 9.5L 41.0323 4.5L 33.0323 4.5ZM 36.5323 8C 34.5993 8 33.0323 6.43301 33.0323 4.5L 41.0323 4.5C 41.0323 2.0147 39.0176 0 36.5323 0L 36.5323 8ZM 28.8912 8L 36.5323 8L 36.5323 0L 28.8912 0L 28.8912 8ZM 32.3912 4.5C 32.3912 6.43301 30.8241 8 28.8912 8L 28.8912 0C 26.4059 0 24.3912 2.0147 24.3912 4.5L 32.3912 4.5ZM 32.3912 9.5L 32.3912 4.5L 24.3912 4.5L 24.3912 9.5L 32.3912 9.5ZM 37.0867 9.5C 37.0867 11.9853 39.1015 14 41.5867 14L 41.5867 6C 43.5197 6 45.0867 7.56699 45.0867 9.5L 37.0867 9.5ZM 37.0867 4.5L 37.0867 9.5L 45.0867 9.5L 45.0867 4.5L 37.0867 4.5ZM 41.5867 0C 39.1015 0 37.0867 2.0147 37.0867 4.5L 45.0867 4.5C 45.0867 6.43301 43.5197 8 41.5867 8L 41.5867 0ZM 49.2279 0L 41.5867 0L 41.5867 8L 49.2279 8L 49.2279 0ZM 53.7279 4.5C 53.7279 2.0147 51.7131 0 49.2279 0L 49.2279 8C 47.2949 8 45.7279 6.43301 45.7279 4.5L 53.7279 4.5ZM 53.7279 9.5L 53.7279 4.5L 45.7279 4.5L 45.7279 9.5L 53.7279 9.5ZM 49.2279 14C 51.7131 14 53.7279 11.9853 53.7279 9.5L 45.7279 9.5C 45.7279 7.56699 47.2949 6 49.2279 6L 49.2279 14ZM 41.5867 14L 49.2279 14L 49.2279 6L 41.5867 6L 41.5867 14ZM 4.5 6C 6.43298 6 8 7.56699 8 9.5L 0 9.5C 0 11.9853 2.01474 14 4.5 14L 4.5 6ZM 11.5 6L 4.5 6L 4.5 14L 11.5 14L 11.5 6ZM 8 9.5C 8 7.56699 9.56702 6 11.5 6L 11.5 14C 13.9853 14 16 11.9853 16 9.5L 8 9.5ZM 8 4.5L 8 9.5L 16 9.5L 16 4.5L 8 4.5ZM 11.5 8C 9.56702 8 8 6.43301 8 4.5L 16 4.5C 16 2.0147 13.9853 0 11.5 0L 11.5 8ZM 8 8L 11.5 8L 11.5 0L 8 0L 8 8ZM 8 8L 8 0C 3.58172 0 0 3.58173 0 8L 8 8ZM 8 9.5L 8 8L 0 8L 0 9.5L 8 9.5ZM 57 9.5C 57 7.56701 58.567 6 60.5 6L 60.5 14C 62.9853 14 65 11.9853 65 9.5L 57 9.5ZM 57 8L 57 9.5L 65 9.5L 65 8L 57 8ZM 57 8L 65 8C 65 3.58172 61.4183 0 57 0L 57 8ZM 53.5 8L 57 8L 57 0L 53.5 0L 53.5 8ZM 57 4.5C 57 6.43301 55.433 8 53.5 8L 53.5 0C 51.0147 0 49 2.0147 49 4.5L 57 4.5ZM 57 9.5L 57 4.5L 49 4.5L 49 9.5L 57 9.5ZM 53.5 6C 55.433 6 57 7.56699 57 9.5L 49 9.5C 49 11.9853 51.0147 14 53.5 14L 53.5 6ZM 60.5 6L 53.5 6L 53.5 14L 60.5 14L 60.5 6Z"/>
<path id="path2_fill" fill-rule="evenodd" d="M 0 10L 59 10L 59 5.5C 59 5.77615 58.7761 6 58.5 6L 50.8589 6C 50.5827 6 50.3589 5.77615 50.3589 5.5L 50.3589 0.5C 50.3589 0.223854 50.5827 0 50.8589 0L 46.2279 0C 46.504 0 46.7279 0.223854 46.7279 0.5L 46.7279 5.5C 46.7279 5.77615 46.504 6 46.2279 6L 38.5867 6C 38.3106 6 38.0867 5.77615 38.0867 5.5L 38.0867 0.5C 38.0867 0.223854 38.3106 0 38.5867 0L 33.5323 0C 33.8084 0 34.0323 0.223854 34.0323 0.5L 34.0323 5.5C 34.0323 5.77615 33.8084 6 33.5323 6L 25.8912 6C 25.615 6 25.3912 5.77615 25.3912 5.5L 25.3912 0.5C 25.3912 0.223854 25.615 0 25.8912 0L 20.8367 0C 21.1129 0 21.3367 0.223854 21.3367 0.5L 21.3367 5.5C 21.3367 5.77615 21.1129 6 20.8367 6L 13.1956 6C 12.9194 6 12.6956 5.77615 12.6956 5.5L 12.6956 0.5C 12.6956 0.223854 12.9194 0 13.1956 0L 8.14114 0C 8.41729 0 8.64114 0.223854 8.64114 0.5L 8.64114 5.5C 8.64114 5.77615 8.41729 6 8.14115 6L 0.5 6C 0.223858 6 0 5.77615 0 5.5L 0 10ZM 55 0C 57.2091 0 59 1.79086 59 4L 59 0L 55 0ZM 0 0L 4 0C 1.79086 0 0 1.79086 0 4L 0 0Z"/>
<path id="path3_fill" fill-rule="evenodd" d="M 20.8367 10L 25.8912 10C 25.615 10 25.3912 9.77614 25.3912 9.5L 25.3912 4.5C 25.3912 4.22386 25.615 4 25.8912 4L 33.5323 4C 33.8084 4 34.0323 4.22386 34.0323 4.5L 34.0323 9.5C 34.0323 9.77614 33.8084 10 33.5323 10L 38.5867 10C 38.3106 10 38.0867 9.77614 38.0867 9.5L 38.0867 4.5C 38.0867 4.22386 38.3106 4 38.5867 4L 46.2279 4C 46.504 4 46.7279 4.22386 46.7279 4.5L 46.7279 9.5C 46.7279 9.77614 46.504 10 46.2279 10L 50.8589 10C 50.5827 10 50.3589 9.77614 50.3589 9.5L 50.3589 4.5C 50.3589 4.22386 50.5827 4 50.8589 4L 58.5 4C 58.7761 4 59 4.22386 59 4.5L 59 0L 0 0L 0 4.5C 0 4.22386 0.223858 4 0.5 4L 8.14115 4C 8.41729 4 8.64114 4.22386 8.64114 4.5L 8.64114 9.5C 8.64114 9.77614 8.41729 10 8.14114 10L 13.1956 10C 12.9194 10 12.6956 9.77614 12.6956 9.5L 12.6956 4.5C 12.6956 4.22386 12.9194 4 13.1956 4L 20.8367 4C 21.1129 4 21.3367 4.22386 21.3367 4.5L 21.3367 9.5C 21.3367 9.77614 21.1129 10 20.8367 10ZM 59 6C 59 8.20914 57.2091 10 55 10L 59 10L 59 6ZM 0 10L 0 6C 0 8.20914 1.79086 10 4 10L 0 10Z"/>
<path id="path4_fill" d="M 4.8345 44L 4.8345 14.545L 13.1335 14.545L 19.7125 37.55L 26.2915 14.545L 34.6335 14.545L 34.6335 44L 29.8175 44L 29.8175 19.834L 29.1725 19.834L 22.2065 42.796L 17.2185 42.796L 10.2525 19.834L 9.6075 19.834L 9.6075 44L 4.8345 44Z"/>
<path id="path5_fill" d="M 59.5997 46.924C 59.5997 51.6253 56.2027 53.976 49.4087 53.976C 46.1407 53.976 43.7184 53.5317 42.1417 52.643C 40.565 51.7543 39.7767 50.1347 39.7767 47.784C 39.7767 46.7233 40.0347 45.806 40.5507 45.032C 41.0667 44.2867 41.898 43.4697 43.0447 42.581C 42.0987 41.9503 41.6257 40.904 41.6257 39.442C 41.6257 38.8687 42.0127 37.937 42.7867 36.647L 43.1737 36.002C 41.1097 34.7693 40.0777 32.6193 40.0777 29.552C 40.0777 26.972 40.8517 25.08 42.3997 23.876C 43.9477 22.672 46.0404 22.07 48.6777 22.07C 49.939 22.07 51.186 22.2133 52.4187 22.5L 53.0637 22.629L 59.7287 22.457L 59.7287 26.241L 56.1597 26.026C 56.9337 27.0293 57.3207 28.2047 57.3207 29.552C 57.3207 32.3613 56.604 34.3107 55.1707 35.4C 53.766 36.4607 51.5587 36.991 48.5487 36.991C 47.8034 36.991 47.1727 36.9337 46.6567 36.819C 46.2554 37.7937 46.0547 38.5533 46.0547 39.098C 46.0547 39.614 46.3127 39.9723 46.8287 40.173C 47.3734 40.3737 48.6634 40.4883 50.6987 40.517C 54.11 40.5457 56.4464 41.0043 57.7077 41.893C 58.969 42.7817 59.5997 44.4587 59.5997 46.924ZM 44.3777 47.354C 44.3777 48.3573 44.779 49.074 45.5817 49.504C 46.3844 49.934 47.7604 50.149 49.7097 50.149C 53.1784 50.149 54.9127 49.16 54.9127 47.182C 54.9127 46.064 54.5974 45.3473 53.9667 45.032C 53.3647 44.7453 52.1464 44.5877 50.3117 44.559L 46.0977 44.301C 45.467 44.817 45.0227 45.29 44.7647 45.72C 44.5067 46.1787 44.3777 46.7233 44.3777 47.354ZM 44.7217 29.552C 44.7217 30.8707 45.037 31.8453 45.6677 32.476C 46.2984 33.078 47.316 33.379 48.7207 33.379C 50.1254 33.379 51.1287 33.078 51.7307 32.476C 52.3614 31.8453 52.6767 30.8707 52.6767 29.552C 52.6767 28.2333 52.3614 27.273 51.7307 26.671C 51.1 26.0403 50.0824 25.725 48.6777 25.725C 46.0404 25.725 44.7217 27.0007 44.7217 29.552Z"/>
</defs>
</svg>
