<svg width="2398" height="512" viewBox="0 0 2398 512" version="1.1" xmlns="http://www.w3.org/2000/svg" xmlns:xlink="http://www.w3.org/1999/xlink">
<title>Moviegoer</title>
<desc>Created using Figma</desc>
<g id="Canvas" transform="matrix(12.4878 0 0 12.4878 199.805 -3159.41)">
<g id="Moviegoer">
<use xlink:href="#path0_fill" transform="translate(-21 240)" fill="#171717"/>
<use xlink:href="#path1_fill" transform="translate(-21 240)" fill="#FF0000"/>
</g>
</g>
<defs>
<path id="path0_fill" d="M 5.47513 44L 5.47513 14.545L 13.7741 14.545L 20.3531 37.55L 26.9321 14.545L 35.2741 14.545L 35.2741 44L 30.4581 44L 30.4581 19.834L 29.8131 19.834L 22.8471 42.796L 17.8591 42.796L 10.8931 19.834L 10.2481 19.834L 10.2481 44L 5.47513 44ZM 42.3584 24.822C 43.849 22.9587 46.3144 22.027 49.7544 22.027C 53.1944 22.027 55.6454 22.9587 57.1074 24.822C 58.598 26.6853 59.3434 29.4803 59.3434 33.207C 59.3434 36.9337 58.6267 39.743 57.1934 41.635C 55.76 43.527 53.2804 44.473 49.7544 44.473C 46.2284 44.473 43.7487 43.527 42.3154 41.635C 40.882 39.743 40.1654 36.9337 40.1654 33.207C 40.1654 29.4803 40.8964 26.6853 42.3584 24.822ZM 45.8844 38.797C 46.5437 39.9437 47.8337 40.517 49.7544 40.517C 51.675 40.517 52.965 39.9437 53.6244 38.797C 54.2837 37.6503 54.6134 35.7727 54.6134 33.164C 54.6134 30.5553 54.255 28.7063 53.5384 27.617C 52.8504 26.5277 51.589 25.983 49.7544 25.983C 47.9197 25.983 46.644 26.5277 45.9274 27.617C 45.2394 28.7063 44.8954 30.5553 44.8954 33.164C 44.8954 35.7727 45.225 37.6503 45.8844 38.797ZM 61.6422 22.5L 66.5442 22.5L 70.6722 40.001L 72.0482 40.001L 76.3482 22.5L 81.1212 22.5L 75.5312 44L 67.1892 44L 61.6422 22.5ZM 84.7853 44L 84.7853 22.5L 89.4723 22.5L 89.4723 44L 84.7853 44ZM 84.7853 18.845L 84.7853 13.9L 89.4723 13.9L 89.4723 18.845L 84.7853 18.845ZM 110.465 40.13L 111.669 40.001L 111.755 43.484C 108.487 44.1433 105.592 44.473 103.069 44.473C 99.8873 44.473 97.594 43.5987 96.1893 41.85C 94.8133 40.1013 94.1253 37.3063 94.1253 33.465C 94.1253 25.8397 97.2357 22.027 103.456 22.027C 109.476 22.027 112.486 25.3093 112.486 31.874L 112.185 35.228L 98.8553 35.228C 98.884 37.0053 99.271 38.3097 100.016 39.141C 100.762 39.9723 102.152 40.388 104.187 40.388C 106.223 40.388 108.315 40.302 110.465 40.13ZM 107.885 31.616C 107.885 29.4947 107.541 28.0183 106.853 27.187C 106.194 26.327 105.062 25.897 103.456 25.897C 101.851 25.897 100.676 26.3413 99.9303 27.23C 99.2137 28.1187 98.841 29.5807 98.8123 31.616L 107.885 31.616Z"/>
<path id="path1_fill" d="M 135.784 46.924C 135.784 51.6253 132.387 53.976 125.593 53.976C 122.325 53.976 119.903 53.5317 118.326 52.643C 116.75 51.7543 115.961 50.1347 115.961 47.784C 115.961 46.7233 116.219 45.806 116.735 45.032C 117.251 44.2867 118.083 43.4697 119.229 42.581C 118.283 41.9503 117.81 40.904 117.81 39.442C 117.81 38.8687 118.197 37.937 118.971 36.647L 119.358 36.002C 117.294 34.7693 116.262 32.6193 116.262 29.552C 116.262 26.972 117.036 25.08 118.584 23.876C 120.132 22.672 122.225 22.07 124.862 22.07C 126.124 22.07 127.371 22.2133 128.603 22.5L 129.248 22.629L 135.913 22.457L 135.913 26.241L 132.344 26.026C 133.118 27.0293 133.505 28.2047 133.505 29.552C 133.505 32.3613 132.789 34.3107 131.355 35.4C 129.951 36.4607 127.743 36.991 124.733 36.991C 123.988 36.991 123.357 36.9337 122.841 36.819C 122.44 37.7937 122.239 38.5533 122.239 39.098C 122.239 39.614 122.497 39.9723 123.013 40.173C 123.558 40.3737 124.848 40.4883 126.883 40.517C 130.295 40.5457 132.631 41.0043 133.892 41.893C 135.154 42.7817 135.784 44.4587 135.784 46.924ZM 120.562 47.354C 120.562 48.3573 120.964 49.074 121.766 49.504C 122.569 49.934 123.945 50.149 125.894 50.149C 129.363 50.149 131.097 49.16 131.097 47.182C 131.097 46.064 130.782 45.3473 130.151 45.032C 129.549 44.7453 128.331 44.5877 126.496 44.559L 122.282 44.301C 121.652 44.817 121.207 45.29 120.949 45.72C 120.691 46.1787 120.562 46.7233 120.562 47.354ZM 120.906 29.552C 120.906 30.8707 121.222 31.8453 121.852 32.476C 122.483 33.078 123.501 33.379 124.905 33.379C 126.31 33.379 127.313 33.078 127.915 32.476C 128.546 31.8453 128.861 30.8707 128.861 29.552C 128.861 28.2333 128.546 27.273 127.915 26.671C 127.285 26.0403 126.267 25.725 124.862 25.725C 122.225 25.725 120.906 27.0007 120.906 29.552ZM 140.746 24.822C 142.237 22.9587 144.702 22.027 148.142 22.027C 151.582 22.027 154.033 22.9587 155.495 24.822C 156.986 26.6853 157.731 29.4803 157.731 33.207C 157.731 36.9337 157.014 39.743 155.581 41.635C 154.148 43.527 151.668 44.473 148.142 44.473C 144.616 44.473 142.136 43.527 140.703 41.635C 139.27 39.743 138.553 36.9337 138.553 33.207C 138.553 29.4803 139.284 26.6853 140.746 24.822ZM 144.272 38.797C 144.931 39.9437 146.221 40.517 148.142 40.517C 150.063 40.517 151.353 39.9437 152.012 38.797C 152.671 37.6503 153.001 35.7727 153.001 33.164C 153.001 30.5553 152.643 28.7063 151.926 27.617C 151.238 26.5277 149.977 25.983 148.142 25.983C 146.307 25.983 145.032 26.5277 144.315 27.617C 143.627 28.7063 143.283 30.5553 143.283 33.164C 143.283 35.7727 143.613 37.6503 144.272 38.797ZM 177.695 40.13L 178.899 40.001L 178.985 43.484C 175.717 44.1433 172.821 44.473 170.299 44.473C 167.117 44.473 164.823 43.5987 163.419 41.85C 162.043 40.1013 161.355 37.3063 161.355 33.465C 161.355 25.8397 164.465 22.027 170.686 22.027C 176.706 22.027 179.716 25.3093 179.716 31.874L 179.415 35.228L 166.085 35.228C 166.113 37.0053 166.5 38.3097 167.246 39.141C 167.991 39.9723 169.381 40.388 171.417 40.388C 173.452 40.388 175.545 40.302 177.695 40.13ZM 175.115 31.616C 175.115 29.4947 174.771 28.0183 174.083 27.187C 173.423 26.327 172.291 25.897 170.686 25.897C 169.08 25.897 167.905 26.3413 167.16 27.23C 166.443 28.1187 166.07 29.5807 166.042 31.616L 175.115 31.616ZM 184.223 44L 184.223 22.5L 188.867 22.5L 188.867 25.08C 191.303 23.5033 193.74 22.4857 196.177 22.027L 196.177 26.714C 193.711 27.2013 191.604 27.832 189.856 28.606L 188.91 28.993L 188.91 44L 184.223 44Z"/>
</defs>
</svg>
